<svg xmlns="http://www.w3.org/2000/svg" viewBox="0 0 4096 4096"><defs><style>.cls-1{fill:#6051ff;}.cls-2{fill:#8175ff;}.cls-3{fill:#ededf0;}</style></defs><g id="Imagery"><path class="cls-1" d="M933.44,1846h0C911,2402.4,1033.33,3044.6,1971.73,3180.45c737.95-11,1179.81-430.16,1202.48-1132.58-182.2,250.15-484.72,459-834,173.39C1660.15,2513.09,933.45,1846,933.45,1846"/><path class="cls-2" d="M933.45,1846s550.75-476.39,1333.27,308.39c377.63,378.72,708.22,163.89,903.6-101.24a20,20,0,0,0,3.86-12c-3.26-385.63-286.22-475.45-401.47-496.05-17.09-3-29.63,15.65-20.34,30.31,43.52,68.65,104.49,228-87.72,420.73C1915.47,2747.45,933.45,1846,933.45,1846h0Zm1331.72-165.69c-39,39-41,93.28,0,115.36s99.72-23.64,140-59.31c24.78-21.94,58.14-58.23,80.16-82.92a19.94,19.94,0,0,0-12.41-33C2423.24,1614.11,2331.6,1613.89,2265.17,1680.33Zm-74.39-388.11c-67.63,16-79.48,74.35-41.82,97.38,25.7,15.72,122.38,12.78,181.21,9.33,18-1,25.45-23.48,11.71-35.11C2301.62,1329.69,2235.24,1281.7,2190.78,1292.22ZM1553.73,2703.47c-198.83-150-399.49-219.22-448.19-154.65s73,238.51,271.82,388.49,399.48,219.22,448.19,154.64S1752.55,2853.45,1553.73,2703.47Z"/><path class="cls-3" d="M2047,3271.87c-674.31,0-1222.91-549-1222.91-1223.83S1372.69,824.2,2047,824.2a1221.82,1221.82,0,0,1,268.35,29.69,19.91,19.91,0,0,0,23.24-13.25l84.72-258.34a48,48,0,0,1,5.28-11.09l3-4.66c33.9-52.62,108.27-106.24,270-62.89,85.15,22.82,186.46,70.45,285.28,134.12,98.34,63.37,183,135.48,238.53,203,105.64,128.64,87.51,218.18,53.71,270.66l-2.2,3.41a65.15,65.15,0,0,1-13.08,14.78l-217.82,181.09a20.24,20.24,0,0,0-3.48,27.33,1217.63,1217.63,0,0,1,227.32,710C3269.9,2722.86,2721.31,3271.87,2047,3271.87Zm0-2264.82c-573.5,0-1040.08,467-1040.08,1041S1473.5,3089,2047,3089s1040.07-467,1040.07-1041S2620.49,1007.05,2047,1007.05Zm476.78-86a1227.43,1227.43,0,0,1,376.07,250.69,19.63,19.63,0,0,0,26.24,1L3108,1021.47a19.56,19.56,0,0,0,4.46-24.72c-24.63-43.24-96.87-123.28-226.32-206.38-130.64-83.86-234.1-115.94-282.88-119.73a20.6,20.6,0,0,0-21.16,14.11l-69.44,211.74A19.93,19.93,0,0,0,2523.78,921.05Z"/><path class="cls-3" d="M2048,3713.8c-444.95,0-863.27-173.29-1177.9-487.94s-487.9-733-487.9-1178a1666.25,1666.25,0,0,1,487.9-1178C1177.54,562.41,1584,389.92,2017.55,382.2a30,30,0,0,1,30.45,30v123a29.85,29.85,0,0,1-29.23,29.85C1214.49,580.69,565,1239.86,565,2047.87,565,2867.13,1228.81,3531,2048,3531c817.72,0,1483-665.31,1483-1483.09,0-202.47-39.91-398.24-118.67-582.37a29.24,29.24,0,0,1,14.81-38.17l113-50.93a29.68,29.68,0,0,1,39.47,15.31c89.07,207.51,134.2,428.1,134.2,656.16,0,445-173.27,863.34-487.9,1178A1666,1666,0,0,1,2048,3713.8Z"/></g></svg>